<svg width="1600" height="1000" viewBox="0 0 1600 1000" fill="none" xmlns="http://www.w3.org/2000/svg">
  <rect width="1600" height="1000" fill="#07101B"/>
  <path d="M0 690C250 596 420 650 690 532C960 414 1150 270 1600 322V1000H0V690Z" fill="#0C1728"/>
  <path d="M0 820C245 710 474 755 720 648C981 534 1190 420 1600 500V1000H0V820Z" fill="#10213A"/>
  <rect width="1600" height="1000" fill="url(#fade)"/>
  <rect x="250" y="205" width="1100" height="590" rx="30" stroke="#FFDD00" stroke-opacity="0.18" stroke-width="10"/>
  <path d="M500 650V350H592V574H760V650H500Z" fill="white" fill-opacity="0.72"/>
  <path d="M850 350L898 524L954 350H1036L1092 524L1140 350H1232L1136 650H1048L990 478L934 650H846L750 350H850Z" fill="#FFDD00" fill-opacity="0.58"/>
  <text x="300" y="875" fill="#C7D2FE" fill-opacity="0.35" font-family="Arial, Helvetica, sans-serif" font-size="42" font-weight="700" letter-spacing="12">LEEDS UNITED ONLY</text>
  <defs>
    <linearGradient id="fade" x1="0" x2="1600" y1="0" y2="1000" gradientUnits="userSpaceOnUse">
      <stop stop-color="#FFFFFF" stop-opacity="0.04"/>
      <stop offset="0.55" stop-color="#FFFFFF" stop-opacity="0"/>
      <stop offset="1" stop-color="#000000" stop-opacity="0.28"/>
    </linearGradient>
  </defs>
</svg>
